<svg width="25" height="25" viewBox="0 0 25 25" fill="none" xmlns="http://www.w3.org/2000/svg">
<path fill-rule="evenodd" clip-rule="evenodd" d="M16.2458 2.92365C16.0961 2.43544 15.7014 2.0835 15.3009 2.0835H9.44142C9.04096 2.0835 8.64622 2.43544 8.49659 2.92365L7.73057 5.2085H3.12484C1.97424 5.2085 1.0415 6.14124 1.0415 7.29183V20.8335C1.0415 21.9841 1.97424 22.9168 3.12484 22.9168H21.8748C23.0254 22.9168 23.9582 21.9841 23.9582 20.8335V7.29183C23.9582 6.14124 23.0254 5.2085 21.8748 5.2085H17.0113L16.2458 2.92365ZM16.6665 13.5418C16.6665 15.843 14.801 17.7085 12.4998 17.7085C10.1987 17.7085 8.33317 15.843 8.33317 13.5418C8.33317 11.2406 10.1987 9.37516 12.4998 9.37516C14.801 9.37516 16.6665 11.2406 16.6665 13.5418Z" fill="#333333"/>
</svg>
