<svg width="40" height="40" viewBox="0 0 40 40" fill="none" xmlns="http://www.w3.org/2000/svg">
<g clip-path="url(#clip0_950_6160)">
<rect width="40" height="40" rx="20" fill="#01BA72"/>
<path d="M33.3333 15C33.7754 15 34.1993 15.1756 34.5118 15.4882C34.8244 15.8007 35 16.2246 35 16.6667V18.3333C35 21.8696 33.5952 25.2609 31.0948 27.7614C28.5943 30.2619 25.2029 31.6667 21.6667 31.6667H15.69L17.0117 32.9883C17.3153 33.3027 17.4833 33.7237 17.4795 34.1607C17.4757 34.5977 17.3004 35.0157 16.9914 35.3247C16.6824 35.6337 16.2643 35.809 15.8273 35.8128C15.3903 35.8166 14.9693 35.6486 14.655 35.345L10.495 31.185C10.2367 30.9306 10.0688 30.5987 10.0167 30.24L10 29.985C10.0027 29.5952 10.1426 29.2187 10.395 28.9217L10.4883 28.8217L14.655 24.655C14.9693 24.3514 15.3903 24.1834 15.8273 24.1872C16.2643 24.191 16.6824 24.3663 16.9914 24.6753C17.3004 24.9843 17.4757 25.4023 17.4795 25.8393C17.4833 26.2763 17.3153 26.6973 17.0117 27.0117L15.69 28.3333H21.6667C24.3188 28.3333 26.8624 27.2798 28.7377 25.4044C30.6131 23.529 31.6667 20.9855 31.6667 18.3333V16.6667C31.6667 16.2246 31.8423 15.8007 32.1548 15.4882C32.4674 15.1756 32.8913 15 33.3333 15ZM25.345 4.655L29.5117 8.82167C29.8241 9.13422 29.9996 9.55806 29.9996 10C29.9996 10.4419 29.8241 10.8658 29.5117 11.1783L25.345 15.345C25.1913 15.5042 25.0073 15.6312 24.804 15.7185C24.6007 15.8059 24.382 15.8518 24.1607 15.8538C23.9394 15.8557 23.7199 15.8135 23.5151 15.7297C23.3102 15.6459 23.1242 15.5221 22.9677 15.3657C22.8112 15.2092 22.6874 15.0231 22.6036 14.8183C22.5198 14.6134 22.4777 14.394 22.4796 14.1727C22.4815 13.9514 22.5275 13.7327 22.6148 13.5293C22.7022 13.326 22.8291 13.1421 22.9883 12.9883L24.31 11.6667H18.3333C15.6812 11.6667 13.1376 12.7202 11.2623 14.5956C9.3869 16.471 8.33333 19.0145 8.33333 21.6667V23.3333C8.33333 23.7754 8.15774 24.1993 7.84518 24.5118C7.53262 24.8244 7.10869 25 6.66667 25C6.22464 25 5.80072 24.8244 5.48816 24.5118C5.17559 24.1993 5 23.7754 5 23.3333V21.6667C5 18.1304 6.40476 14.7391 8.90524 12.2386C11.4057 9.73809 14.7971 8.33334 18.3333 8.33334H24.31L22.9883 7.01167C22.6847 6.69733 22.5167 6.27633 22.5205 5.83933C22.5243 5.40234 22.6996 4.98432 23.0086 4.6753C23.3176 4.36629 23.7357 4.19101 24.1727 4.18721C24.6097 4.18341 25.0307 4.35141 25.345 4.655Z" fill="white"/>
</g>
<defs>
<clipPath id="clip0_950_6160">
<rect width="40" height="40" rx="20" fill="white"/>
</clipPath>
</defs>
</svg>
