<svg width="27" height="27" viewBox="0 0 27 27" fill="none" xmlns="http://www.w3.org/2000/svg">
<path d="M12.2334 6.08933C12.2334 6.47407 12.3862 6.84305 12.6583 7.1151C12.9303 7.38715 13.2993 7.53999 13.6841 7.53999C14.0688 7.53999 14.4378 7.38715 14.7098 7.1151C14.9819 6.84305 15.1347 6.47407 15.1347 6.08933C15.1347 5.70459 14.9819 5.33561 14.7098 5.06356C14.4378 4.79151 14.0688 4.63867 13.6841 4.63867C13.2993 4.63867 12.9303 4.79151 12.6583 5.06356C12.3862 5.33561 12.2334 5.70459 12.2334 6.08933ZM12.2334 13.3426C12.2334 13.7274 12.3862 14.0963 12.6583 14.3684C12.9303 14.6404 13.2993 14.7933 13.6841 14.7933C14.0688 14.7933 14.4378 14.6404 14.7098 14.3684C14.9819 14.0963 15.1347 13.7274 15.1347 13.3426C15.1347 12.9579 14.9819 12.5889 14.7098 12.3168C14.4378 12.0448 14.0688 11.892 13.6841 11.892C13.2993 11.892 12.9303 12.0448 12.6583 12.3168C12.3862 12.5889 12.2334 12.9579 12.2334 13.3426ZM12.2334 20.5959C12.2334 20.9806 12.3862 21.3496 12.6583 21.6217C12.9303 21.8937 13.2993 22.0466 13.6841 22.0466C14.0688 22.0466 14.4378 21.8937 14.7098 21.6217C14.9819 21.3496 15.1347 20.9806 15.1347 20.5959C15.1347 20.2112 14.9819 19.8422 14.7098 19.5701C14.4378 19.2981 14.0688 19.1453 13.6841 19.1453C13.2993 19.1453 12.9303 19.2981 12.6583 19.5701C12.3862 19.8422 12.2334 20.2112 12.2334 20.5959Z" fill="#333333"/>
</svg>
