<svg width="22" height="23" viewBox="0 0 22 23" fill="none" xmlns="http://www.w3.org/2000/svg">
<path fill-rule="evenodd" clip-rule="evenodd" d="M11 0C6.90393 0 3.58337 3.32056 3.58337 7.41667V8.33334C3.58337 10.5339 3.28458 12.4847 2.82923 13.8507C2.59982 14.539 2.34869 15.0238 2.11839 15.316C1.94788 15.5324 1.84614 15.5761 1.8228 15.5834C1.27538 15.5891 0.833374 16.0346 0.833374 16.5833V16.7917C0.833374 17.344 1.28109 17.7917 1.83337 17.7917H20.1667C20.719 17.7917 21.1667 17.344 21.1667 16.7917V16.5833C21.1667 16.0346 20.7247 15.5891 20.1773 15.5834C20.1539 15.5761 20.0522 15.5324 19.8817 15.316C19.6514 15.0238 19.4003 14.539 19.1708 13.8507C18.7155 12.4847 18.4167 10.5339 18.4167 8.33334V7.41667C18.4167 3.32056 15.0962 0 11 0ZM1.82032 15.5841C1.81851 15.5844 1.81761 15.5846 1.81761 15.5847C1.81762 15.5847 1.81799 15.5847 1.81874 15.5845C1.81915 15.5844 1.81968 15.5843 1.82032 15.5841ZM5.58337 7.41667C5.58337 4.42512 8.0085 2 11 2C13.9916 2 16.4167 4.42512 16.4167 7.41667V8.33334C16.4167 10.6891 16.7335 12.8633 17.2735 14.4832C17.4303 14.9538 17.6122 15.3966 17.8218 15.7917H4.17828C4.38783 15.3966 4.56973 14.9538 4.7266 14.4832C5.26656 12.8633 5.58337 10.6891 5.58337 8.33334V7.41667Z" fill="#333333"/>
<path d="M9.05401 19.9054C8.72565 19.4613 8.09947 19.3675 7.6554 19.6959C7.21133 20.0242 7.11752 20.6504 7.44588 21.0945C8.27799 22.2198 9.53505 22.9999 10.9999 22.9999C12.4648 22.9999 13.7219 22.2198 14.554 21.0945C14.8824 20.6504 14.7886 20.0242 14.3445 19.6959C13.9004 19.3675 13.2742 19.4613 12.9459 19.9054C12.4146 20.6239 11.7123 20.9999 10.9999 20.9999C10.2876 20.9999 9.58528 20.6239 9.05401 19.9054Z" fill="#333333"/>
</svg>
