<svg width="14" height="13" viewBox="0 0 15 14" fill="none" xmlns="http://www.w3.org/2000/svg">
<path d="M4.08222 12.7962C3.32421 13.2474 2.39576 12.5676 2.59709 11.7087L3.22113 9.04641C3.30643 8.68248 3.18164 8.30135 2.89762 8.05835L0.814459 6.27607C0.14035 5.69933 0.495285 4.59559 1.37921 4.51987L4.16228 4.28147C4.5302 4.24995 4.8508 4.01825 4.99618 3.6788L6.08076 1.14638C6.42698 0.337965 7.57302 0.337963 7.91924 1.14638L9.00382 3.6788C9.1492 4.01825 9.4698 4.24995 9.83772 4.28147L12.6208 4.51987C13.5047 4.59559 13.8596 5.69933 13.1855 6.27607L11.1024 8.05835C10.8184 8.30135 10.6936 8.68248 10.7789 9.04641L11.4029 11.7087C11.6042 12.5676 10.6758 13.2474 9.91778 12.7962L7.51152 11.3637C7.19632 11.1761 6.80368 11.1761 6.48848 11.3637L4.08222 12.7962Z" fill="#FF8A00"/>
</svg>
