<svg width="19" height="19" viewBox="0 0 19 19" fill="none" xmlns="http://www.w3.org/2000/svg">
<path fill-rule="evenodd" clip-rule="evenodd" d="M13.644 0.825094C13.4652 0.539477 13.2019 0.316696 12.8906 0.187763C12.5794 0.0588301 12.2356 0.0301598 11.9073 0.105744L9.57701 0.641044C9.33819 0.695937 9.09004 0.695937 8.85122 0.641044L6.52094 0.105744C6.19261 0.0301598 5.84888 0.0588301 5.5376 0.187763C5.22632 0.316696 4.96298 0.539477 4.78424 0.825094L3.51412 2.85223C3.38452 3.05961 3.20955 3.23459 3.00218 3.3655L0.975175 4.6357C0.690069 4.8143 0.46763 5.07723 0.338733 5.38799C0.209836 5.69876 0.180876 6.04195 0.255872 6.36992L0.791137 8.70295C0.845828 8.94136 0.845828 9.18906 0.791137 9.42748L0.255872 11.7592C0.180584 12.0874 0.209399 12.4308 0.338309 12.7419C0.46722 13.0529 0.689823 13.316 0.975175 13.4947L3.00218 14.7649C3.20955 14.8945 3.38452 15.0695 3.51542 15.2769L4.78554 17.304C5.15102 17.8886 5.84829 18.1776 6.52094 18.0234L8.85122 17.4881C9.09004 17.4332 9.33819 17.4332 9.57701 17.4881L11.9086 18.0234C12.2367 18.0987 12.5802 18.0699 12.8912 17.9409C13.2022 17.812 13.4653 17.5894 13.644 17.304L14.9141 15.2769C15.0437 15.0695 15.2187 14.8945 15.426 14.7649L17.4544 13.4947C17.7397 13.3158 17.9622 13.0524 18.0909 12.7411C18.2196 12.4298 18.2481 12.0861 18.1724 11.7579L17.6384 9.42748C17.5835 9.18865 17.5835 8.94048 17.6384 8.70165L18.1737 6.36992C18.2491 6.04189 18.2204 5.69852 18.0918 5.3875C17.9631 5.07648 17.7408 4.81326 17.4556 4.63441L15.4273 3.3642C15.2203 3.23435 15.0452 3.05933 14.9154 2.85223L13.644 0.825094ZM12.9921 6.17421C13.0722 6.02679 13.0921 5.85403 13.0475 5.69227C13.0029 5.53051 12.8972 5.39236 12.7529 5.30689C12.6085 5.22143 12.4365 5.1953 12.2733 5.23402C12.11 5.27273 11.9681 5.37327 11.8775 5.51448L8.48833 11.2511L6.44188 9.29139C6.38117 9.22905 6.30853 9.17957 6.22828 9.14591C6.14804 9.11226 6.06184 9.09511 5.97482 9.09548C5.8878 9.09586 5.80176 9.11377 5.72181 9.14812C5.64186 9.18248 5.56965 9.23258 5.50949 9.29545C5.44932 9.35832 5.40243 9.43266 5.37162 9.51405C5.3408 9.59543 5.32669 9.68219 5.33013 9.76914C5.33357 9.85609 5.35448 9.94147 5.39162 10.0202C5.42876 10.0989 5.48138 10.1693 5.54632 10.2272L8.18247 12.7533C8.25302 12.8208 8.3379 12.8715 8.43078 12.9015C8.52366 12.9316 8.62212 12.9403 8.71882 12.9269C8.81553 12.9136 8.90797 12.8786 8.98924 12.8245C9.07052 12.7704 9.13853 12.6987 9.18819 12.6147L12.9921 6.17421Z" fill="#41C0F2"/>
</svg>
