<svg width="36" height="36" viewBox="0 0 36 36" fill="none" xmlns="http://www.w3.org/2000/svg">
<path fill-rule="evenodd" clip-rule="evenodd" d="M1.5 18C1.5 8.8873 8.8873 1.5 18 1.5C27.1127 1.5 34.5 8.8873 34.5 18C34.5 27.1127 27.1127 34.5 18 34.5C8.8873 34.5 1.5 27.1127 1.5 18ZM11.636 10.5754C12.2218 9.98959 13.1716 9.98959 13.7574 10.5754L18 14.818L22.2426 10.5754C22.8284 9.98959 23.7782 9.98959 24.364 10.5754L25.4246 11.636C26.0104 12.2218 26.0104 13.1716 25.4246 13.7574L21.182 18L25.4246 22.2426C26.0104 22.8284 26.0104 23.7782 25.4246 24.364L24.364 25.4246C23.7782 26.0104 22.8284 26.0104 22.2426 25.4246L18 21.182L13.7574 25.4246C13.1716 26.0104 12.2218 26.0104 11.636 25.4246L10.5754 24.364C9.98959 23.7782 9.98959 22.8284 10.5754 22.2426L14.818 18L10.5754 13.7574C9.98959 13.1716 9.98959 12.2218 10.5754 11.636L11.636 10.5754Z" fill="#D8D8D8"/>
</svg>
