<svg width="20" height="20" viewBox="0 0 20 20" fill="none" xmlns="http://www.w3.org/2000/svg">
<path d="M14.4108 4.41107C14.7362 4.08563 15.2638 4.08563 15.5893 4.41107C15.9147 4.73651 15.9147 5.26414 15.5893 5.58958L11.1785 10.0003L15.5893 14.4111C15.9147 14.7365 15.9147 15.2641 15.5893 15.5896C15.2638 15.915 14.7362 15.915 14.4108 15.5896L10 11.1788L5.58928 15.5896C5.26384 15.915 4.7362 15.915 4.41077 15.5896C4.08533 15.2641 4.08533 14.7365 4.41077 14.4111L8.82151 10.0003L4.41077 5.58958C4.08533 5.26414 4.08533 4.73651 4.41077 4.41107C4.7362 4.08563 5.26384 4.08563 5.58928 4.41107L10 8.82181L14.4108 4.41107Z" fill="#767676"/>
</svg>
