<svg width="24" height="24" viewBox="0 0 24 24" fill="none" xmlns="http://www.w3.org/2000/svg">
<circle cx="12" cy="12" r="12" fill="white"/>
<path fill-rule="evenodd" clip-rule="evenodd" d="M10.6667 4.66699C7.35296 4.66699 4.66667 7.35328 4.66667 10.667C4.66667 13.9807 7.35296 16.667 10.6667 16.667C12.0833 16.667 13.3853 16.176 14.4118 15.3549L17.5286 18.4717C17.789 18.7321 18.2111 18.7321 18.4714 18.4717C18.7318 18.2114 18.7318 17.7893 18.4714 17.5289L15.3546 14.4121C16.1757 13.3857 16.6667 12.0837 16.6667 10.667C16.6667 7.35328 13.9804 4.66699 10.6667 4.66699ZM6.00001 10.667C6.00001 8.08966 8.08934 6.00033 10.6667 6.00033C13.244 6.00033 15.3333 8.08966 15.3333 10.667C15.3333 13.2443 13.244 15.3337 10.6667 15.3337C8.08934 15.3337 6.00001 13.2443 6.00001 10.667Z" fill="#41C0F2"/>
</svg>
