<svg width="36" height="36" viewBox="0 0 36 36" fill="none" xmlns="http://www.w3.org/2000/svg">
<path fill-rule="evenodd" clip-rule="evenodd" d="M15 1.5C7.54416 1.5 1.5 7.54416 1.5 15C1.5 22.4558 7.54416 28.5 15 28.5C18.1875 28.5 21.117 27.3953 23.4265 25.5478L30.4393 32.5607C31.0251 33.1464 31.9749 33.1464 32.5607 32.5607C33.1464 31.9749 33.1464 31.0251 32.5607 30.4393L25.5478 23.4265C27.3953 21.117 28.5 18.1875 28.5 15C28.5 7.54416 22.4558 1.5 15 1.5ZM4.5 15C4.5 9.20101 9.20101 4.5 15 4.5C20.799 4.5 25.5 9.20101 25.5 15C25.5 20.799 20.799 25.5 15 25.5C9.20101 25.5 4.5 20.799 4.5 15Z" fill="#41C0F2"/>
</svg>
