<svg width="20" height="26" viewBox="0 0 20 26" fill="none" xmlns="http://www.w3.org/2000/svg">
<g clip-path="url(#clip0_181_1541)">
<path d="M13 19.8571V18.5714C13 17.0179 14.9713 15.5484 16.25 14.5C18.0525 13.0231 19 11.0388 19 8.71431C19 4.4286 15.0169 1.00003 10 1.00003C8.8172 0.997202 7.64539 1.19481 6.55197 1.58148C5.45856 1.96816 4.4651 2.53628 3.62871 3.25318C2.79233 3.97008 2.12952 4.82162 1.6784 5.75884C1.22728 6.69605 0.996736 7.70046 1.00003 8.71431C1.00003 10.9557 1.98816 13.0745 3.75003 14.5C5.0219 15.5291 7.00002 17.0018 7.00002 18.5714V19.8571M8.00002 25H12M7.00002 22.4286H13M10 19.8571V13" stroke="#333333" stroke-width="2" stroke-linecap="round" stroke-linejoin="round"/>
<path d="M12 11C12 11 10.8679 12 10 12C9.13211 12 8 11 8 11" stroke="#333333" stroke-width="2" stroke-linecap="round" stroke-linejoin="round"/>
</g>
<defs>
<clipPath id="clip0_181_1541">
<rect width="20" height="26" fill="white"/>
</clipPath>
</defs>
</svg>
