<svg width="22" height="24" viewBox="0 0 22 24" fill="none" xmlns="http://www.w3.org/2000/svg">
<path fill-rule="evenodd" clip-rule="evenodd" d="M11 8C8.79086 8 7 9.79086 7 12C7 14.2091 8.79086 16 11 16C13.2091 16 15 14.2091 15 12C15 9.79086 13.2091 8 11 8ZM9 12C9 10.8954 9.89543 10 11 10C12.1046 10 13 10.8954 13 12C13 13.1046 12.1046 14 11 14C9.89543 14 9 13.1046 9 12Z" fill="#333333"/>
<path fill-rule="evenodd" clip-rule="evenodd" d="M10.2865 0.5C8.88559 0.5 7.64585 1.46745 7.37147 2.85605L7.2924 3.25622C7.10465 4.20638 6.0617 4.83059 5.04486 4.48813L4.648 4.35447C3.32221 3.90796 1.83848 4.42968 1.11812 5.63933L0.404676 6.83735C-0.322514 8.05846 -0.0458953 9.60487 1.03902 10.5142L1.35689 10.7806C2.12914 11.4279 2.12914 12.5721 1.35689 13.2194L1.03902 13.4858C-0.0458951 14.3951 -0.322515 15.9415 0.404675 17.1626L1.11809 18.3606C1.83847 19.5703 3.32225 20.092 4.64806 19.6455L5.04481 19.5118C6.06167 19.1693 7.10465 19.7935 7.2924 20.7437L7.37148 21.1439C7.64585 22.5325 8.88559 23.5 10.2865 23.5H11.7134C13.1143 23.5 14.3541 22.5325 14.6284 21.1438L14.7074 20.7438C14.8952 19.7936 15.9381 19.1693 16.955 19.5118L17.3519 19.6455C18.6777 20.092 20.1615 19.5703 20.8818 18.3606L21.5952 17.1627C22.3224 15.9416 22.0458 14.3951 20.9608 13.4858L20.643 13.2194C19.8707 12.5722 19.8707 11.4278 20.643 10.7806L20.9608 10.5142C22.0458 9.60489 22.3224 8.05845 21.5952 6.83732L20.8818 5.63932C20.1614 4.42968 18.6777 3.90795 17.352 4.35444L16.955 4.48814C15.9381 4.83059 14.8952 4.20634 14.7074 3.25617L14.6284 2.85616C14.3541 1.46751 13.1143 0.5 11.7134 0.5H10.2865ZM9.33353 3.24375C9.41463 2.83334 9.79805 2.5 10.2865 2.5H11.7134C12.2018 2.5 12.5853 2.83336 12.6663 3.24378L12.7454 3.64379C13.1789 5.83811 15.4906 7.09167 17.5933 6.38353L17.9903 6.24984C18.4493 6.09527 18.9391 6.28595 19.1634 6.66264L19.8769 7.86064C20.0944 8.22587 20.0206 8.69271 19.6762 8.98135L19.3583 9.24773C17.6323 10.6943 17.6323 13.3057 19.3583 14.7523L19.6762 15.0186C20.0206 15.3073 20.0944 15.7741 19.8769 16.1394L19.1635 17.3373C18.9391 17.714 18.4493 17.9047 17.9903 17.7501L17.5934 17.6164C15.4907 16.9082 13.1789 18.1618 12.7454 20.3562L12.6663 20.7562C12.5853 21.1666 12.2018 21.5 11.7134 21.5H10.2865C9.79806 21.5 9.41463 21.1667 9.33354 20.7562L9.25446 20.356C8.82089 18.1617 6.50906 16.9082 4.40641 17.6165L4.00966 17.7501C3.55068 17.9047 3.0608 17.714 2.83647 17.3373L2.12305 16.1393C1.90555 15.7741 1.97935 15.3073 2.32373 15.0186L2.6416 14.7522C4.36757 13.3056 4.36757 10.6944 2.6416 9.24779L2.32373 8.98137C1.97935 8.69273 1.90555 8.2259 2.12305 7.86067L2.83649 6.66266C3.06082 6.28596 3.55068 6.09528 4.00965 6.24986L4.40651 6.38352C6.50914 7.09166 8.82088 5.83819 9.25446 3.64392L9.33353 3.24375Z" fill="#333333"/>
</svg>
