<svg width="36" height="36" viewBox="0 0 36 36" fill="none" xmlns="http://www.w3.org/2000/svg">
<path d="M23.5814 23.9451L24.2829 23.2482L22.6538 21.6114L21.9554 22.3083L23.5814 23.9451ZM26.635 22.9559L29.5747 24.5542L30.6746 22.5267L27.7364 20.93L26.635 22.9559ZM30.1393 27.7293L27.9548 29.903L29.5808 31.5382L31.7653 29.3661L30.1393 27.7293ZM26.6227 30.6014C24.3921 30.8106 18.6234 30.6244 12.3748 24.4127L10.7472 26.0479C17.5651 32.8273 24.0552 33.1596 26.838 32.8996L26.6227 30.6014ZM12.3748 24.4127C6.41995 18.4902 5.43235 13.5106 5.30928 11.3493L3.00488 11.4801C3.15871 14.1998 4.38168 19.7193 10.7472 26.0479L12.3748 24.4127ZM14.49 14.9059L14.9315 14.4659L13.307 12.8307L12.8655 13.2691L14.49 14.9059ZM15.2822 8.87416L13.3439 6.28364L11.4964 7.66812L13.4347 10.2571L15.2822 8.87416ZM6.81991 5.71907L4.40475 8.11885L6.03229 9.75562L8.44591 7.35584L6.81991 5.71907ZM13.6777 14.0875C12.8624 13.2691 12.8624 13.2691 12.8624 13.2722H12.8593L12.8547 13.2784C12.7821 13.3525 12.7167 13.4334 12.6594 13.5199C12.5763 13.6429 12.4855 13.8045 12.4086 14.0091C12.2213 14.5372 12.1746 15.105 12.2732 15.6566C12.4794 16.9872 13.3962 18.7455 15.7437 21.0807L17.3712 19.4439C15.173 17.2595 14.6499 15.9304 14.553 15.3028C14.5069 15.0044 14.5546 14.8567 14.5684 14.8228C14.5761 14.8013 14.5792 14.7998 14.5684 14.8136C14.5548 14.8349 14.5394 14.855 14.5223 14.8736L14.5069 14.889C14.5019 14.8938 14.4968 14.8984 14.4915 14.9028L13.6777 14.0875ZM15.7437 21.0807C18.0927 23.4159 19.8602 24.3266 21.1924 24.5296C21.8739 24.6342 22.4231 24.5511 22.8399 24.3958C23.0731 24.3095 23.2911 24.187 23.486 24.0327C23.5125 24.0106 23.5382 23.9875 23.563 23.9635L23.5737 23.9543L23.5783 23.9497L23.5799 23.9466C23.5799 23.9466 23.5814 23.9451 22.7676 23.1267C21.9523 22.3083 21.9569 22.3067 21.9569 22.3067L21.96 22.3037L21.9631 22.3006L21.9723 22.2929L21.9877 22.2775C22.0062 22.2609 22.0257 22.2455 22.0462 22.2314C22.0616 22.2206 22.0569 22.2252 22.0354 22.2344C21.9969 22.2483 21.8462 22.296 21.5431 22.2498C20.9063 22.1514 19.5679 21.6283 17.3712 19.4439L15.7437 21.0807ZM13.3439 6.2821C11.7748 4.18999 8.69204 3.85771 6.81991 5.71907L8.44591 7.35584C9.26429 6.54207 10.7165 6.62668 11.4964 7.66812L13.3439 6.2821ZM5.31082 11.3509C5.28005 10.8186 5.52465 10.2617 6.03229 9.75715L4.40321 8.12039C3.57714 8.94185 2.92643 10.1048 3.00488 11.4801L5.31082 11.3509ZM27.9548 29.903C27.5333 30.3245 27.078 30.5614 26.6242 30.6029L26.838 32.8996C27.9687 32.7935 28.8932 32.2243 29.5824 31.5397L27.9548 29.903ZM14.9315 14.4659C16.4467 12.9599 16.559 10.5802 15.2837 8.8757L13.4362 10.2586C14.0562 11.0878 13.9639 12.1754 13.3055 12.8322L14.9315 14.4659ZM29.5762 24.5558C30.833 25.2388 31.0284 26.8479 30.1408 27.7308L31.7683 29.3661C33.8297 27.3155 33.1944 23.8958 30.6761 22.5283L29.5762 24.5558ZM24.2829 23.2497C24.8736 22.6621 25.8243 22.5175 26.6365 22.9575L27.7379 20.9315C26.0704 20.0239 24.0029 20.2746 22.6553 21.613L24.2829 23.2497Z" fill="#333333"/>
<path d="M22.7676 23.1267L21.9554 22.3083M22.7676 23.1267C23.5814 23.9451 23.5799 23.9466 23.5799 23.9466L23.5783 23.9497L23.5737 23.9543L23.563 23.9635C23.5382 23.9875 23.5125 24.0106 23.486 24.0327C23.2911 24.187 23.0731 24.3095 22.8399 24.3958C22.4231 24.5511 21.8739 24.6342 21.1924 24.5296C19.8602 24.3266 18.0927 23.4159 15.7437 21.0807M22.7676 23.1267C21.9523 22.3083 21.9569 22.3067 21.9569 22.3067L21.96 22.3037L21.9631 22.3006L21.9723 22.2929L21.9877 22.2775C22.0062 22.2609 22.0257 22.2455 22.0462 22.2314C22.0616 22.2206 22.0569 22.2252 22.0354 22.2344C21.9969 22.2483 21.8462 22.296 21.5431 22.2498C20.9063 22.1514 19.5679 21.6283 17.3712 19.4439M21.9554 22.3083L22.6538 21.6114L24.2829 23.2482M21.9554 22.3083L23.5814 23.9451L24.2829 23.2482M23.4691 22.4298L24.2829 23.2482M27.1872 21.9422L26.6365 22.9575M26.6365 22.9575C25.8243 22.5175 24.8736 22.6621 24.2829 23.2497L22.6553 21.613C24.0029 20.2746 26.0704 20.0239 27.7379 20.9315L26.6365 22.9575ZM30.1254 23.5405L29.5747 24.5542M29.5747 24.5542L26.635 22.9559L27.7364 20.93L30.6746 22.5267L29.5747 24.5542ZM30.9546 28.5477L31.7683 29.3661M31.7683 29.3661L30.1408 27.7308C31.0284 26.8479 30.833 25.2388 29.5762 24.5558L30.6761 22.5283C33.1944 23.8958 33.8297 27.3155 31.7683 29.3661ZM28.7702 30.7198L27.9548 29.903M27.9548 29.903L30.1393 27.7293L31.7653 29.3661L29.5808 31.5382L27.9548 29.903ZM27.9548 29.903C27.5333 30.3245 27.078 30.5614 26.6242 30.6029L26.838 32.8996M27.9548 29.903L29.5824 31.5397C28.8932 32.2243 27.9687 32.7935 26.838 32.8996M26.7303 31.7505L26.838 32.8996M26.838 32.8996C24.0552 33.1596 17.5651 32.8273 10.7472 26.0479M26.838 32.8996L26.6227 30.6014C24.3921 30.8106 18.6234 30.6244 12.3748 24.4127M11.5625 25.2311L12.3748 24.4127M12.3748 24.4127L10.7472 26.0479M12.3748 24.4127C6.41995 18.4902 5.43235 13.5106 5.30928 11.3493L3.00488 11.4801M4.15708 11.4155L3.00488 11.4801M3.00488 11.4801C3.15871 14.1998 4.38168 19.7193 10.7472 26.0479M3.00488 11.4801C2.92643 10.1048 3.57714 8.94185 4.40321 8.12039M3.00488 11.4801L5.31082 11.3509C5.28005 10.8186 5.52465 10.2617 6.03229 9.75715L4.40321 8.12039M14.1161 13.6476L14.9315 14.4659M14.9315 14.4659L14.49 14.9059L12.8655 13.2691L13.307 12.8307L14.9315 14.4659ZM14.9315 14.4659C16.4467 12.9599 16.559 10.5802 15.2837 8.8757L13.4362 10.2586C14.0562 11.0878 13.9639 12.1754 13.3055 12.8322L14.9315 14.4659ZM14.3577 9.56487L15.2807 8.87416M12.4209 6.97588L11.4964 7.66812M11.4964 7.66812L13.3439 6.28364L15.2822 8.87416L13.4347 10.2571L11.4964 7.66812ZM11.4964 7.66812C10.7165 6.62668 9.26429 6.54207 8.44591 7.35584M11.4964 7.66812L13.3439 6.2821C11.7748 4.18999 8.69204 3.85771 6.81991 5.71907M7.6306 6.53746L8.44591 7.35584M8.44591 7.35584L6.03229 9.75562L4.40475 8.11885L6.81991 5.71907M8.44591 7.35584L6.81991 5.71907M5.21544 8.93723L4.40321 8.12039M16.5559 20.2623L17.3697 19.4439M15.7437 21.0807C13.3962 18.7455 12.4794 16.9872 12.2732 15.6566C12.1746 15.105 12.2213 14.5372 12.4086 14.0091C12.4855 13.8045 12.5763 13.6429 12.6594 13.5199C12.7167 13.4334 12.7821 13.3525 12.8547 13.2784L12.8593 13.2722H12.8624C12.8624 13.2691 12.8624 13.2691 13.6777 14.0875L14.4915 14.9028C14.4968 14.8984 14.5019 14.8938 14.5069 14.889L14.5223 14.8736C14.5394 14.855 14.5548 14.8349 14.5684 14.8136C14.5792 14.7998 14.5761 14.8013 14.5684 14.8228C14.5546 14.8567 14.5069 15.0044 14.553 15.3028C14.6499 15.9304 15.173 17.2595 17.3712 19.4439M15.7437 21.0807L17.3712 19.4439" stroke="#333333" stroke-width="0.2"/>
</svg>
