<svg width="36" height="36" viewBox="0 0 36 36" fill="none" xmlns="http://www.w3.org/2000/svg">
<circle cx="18" cy="9.75" r="6.75" stroke="#333333" stroke-width="2" stroke-linecap="round" stroke-linejoin="round"/>
<path d="M31.5 33V30.5C31.5 26.0817 27.9183 22.5 23.5 22.5H12.5C8.08172 22.5 4.5 26.0817 4.5 30.5V33" stroke="#333333" stroke-width="2" stroke-linecap="round"/>
<path fill-rule="evenodd" clip-rule="evenodd" d="M18 1.5C13.4437 1.5 9.75 5.19365 9.75 9.75C9.75 14.3063 13.4437 18 18 18C22.5563 18 26.25 14.3063 26.25 9.75C26.25 5.19365 22.5563 1.5 18 1.5ZM12.75 9.75C12.75 6.85051 15.1005 4.5 18 4.5C20.8995 4.5 23.25 6.85051 23.25 9.75C23.25 12.6495 20.8995 15 18 15C15.1005 15 12.75 12.6495 12.75 9.75Z" fill="#333333"/>
<path d="M12 21C7.02944 21 3 25.0294 3 30V33C3 33.8284 3.67157 34.5 4.5 34.5C5.32843 34.5 6 33.8284 6 33V30C6 26.6863 8.68629 24 12 24H24C27.3137 24 30 26.6863 30 30V33C30 33.8284 30.6716 34.5 31.5 34.5C32.3284 34.5 33 33.8284 33 33V30C33 25.0294 28.9706 21 24 21H12Z" fill="#333333"/>
</svg>
